<?xml version="1.0" encoding="utf-8"?>
<!-- Generator: Adobe Illustrator 18.1.1, SVG Export Plug-In . SVG Version: 6.00 Build 0)  -->
<!DOCTYPE svg PUBLIC "-//W3C//DTD SVG 1.1//EN" "http://www.w3.org/Graphics/SVG/1.1/DTD/svg11.dtd">
<svg version="1.1" id="Layer_1" xmlns="http://www.w3.org/2000/svg" xmlns:xlink="http://www.w3.org/1999/xlink" x="0px" y="0px"
	 viewBox="0 0 600 600" enable-background="new 0 0 600 600" xml:space="preserve">
<g>
	<polygon fill="#F2F2F2" points="90.3,310.2 86.1,310.2 86.1,534.3 269.9,310.2 	"/>
	<path fill="#F2F2F2" d="M300,155.2c64.3,0,117.4,48.8,124.2,111.3h89.8C506.8,154.6,413.6,65.7,300,65.7
		c-113.3,0-206.3,88.3-213.9,199.7h0h4.1h85.7C183.2,203.5,236.1,155.2,300,155.2"/>
	<path fill="#F2F2F2" d="M421.3,310.2c-13.5,54.4-62.7,94.9-121.3,94.9c-15.3,0-30-2.8-43.6-7.9l-4.1,5l-54.5,66.4
		c30.4,16.5,65.2,26,102.2,26c108,0,197.6-80.3,212.3-184.4H421.3z"/>
</g>
</svg>
